<?xml version="1.0" standalone="no"?>
<!DOCTYPE svg PUBLIC "-//W3C//DTD SVG 20010904//EN"
 "http://www.w3.org/TR/2001/REC-SVG-20010904/DTD/svg10.dtd">
<svg version="1.0" xmlns="http://www.w3.org/2000/svg"
 width="633.000000pt" height="633.000000pt" viewBox="0 0 633.000000 633.000000"
 preserveAspectRatio="xMidYMid meet">
<metadata>
Created by potrace 1.14, written by Peter Selinger 2001-2017
</metadata>
<g transform="translate(0.000000,633.000000) scale(0.100000,-0.100000)"
fill="#000000" stroke="none">
<path d="M0 3165 l0 -3165 3165 0 3165 0 0 3165 0 3165 -3165 0 -3165 0 0
-3165z m3278 2670 c299 -15 628 -104 937 -255 420 -205 774 -516 1039 -914
237 -355 391 -775 441 -1205 18 -148 20 -475 5 -611 -73 -658 -354 -1241 -811
-1686 -209 -203 -411 -345 -674 -475 -359 -177 -718 -260 -1125 -260 -406 0
-765 83 -1125 260 -366 180 -694 450 -938 772 -220 291 -385 631 -472 974 -99
387 -115 777 -49 1175 59 355 217 753 417 1052 270 404 616 709 1042 918 234
115 449 185 712 231 113 19 380 39 453 33 19 -2 86 -6 148 -9z"/>
<path d="M2775 5794 c-400 -54 -762 -190 -1089 -408 -165 -111 -258 -187 -401
-330 -205 -205 -358 -415 -484 -665 -143 -282 -228 -546 -278 -861 -26 -166
-26 -624 1 -795 86 -564 342 -1087 731 -1494 295 -309 717 -564 1130 -685 230
-66 446 -96 705 -96 196 0 298 9 474 41 390 72 808 267 1132 529 104 84 302
283 388 390 169 212 347 527 435 775 54 153 114 386 137 540 27 173 27 629 0
800 -63 409 -209 786 -431 1120 -104 156 -191 262 -330 401 -413 414 -918 663
-1498 739 -146 19 -481 19 -622 -1z m-105 -894 c0 -5 -4 -10 -10 -10 -5 0 -10
5 -10 10 0 6 5 10 10 10 6 0 10 -4 10 -10z m297 -46 c-9 -9 -28 6 -21 18 4 6
10 6 17 -1 6 -6 8 -13 4 -17z m421 -15 c31 -6 76 -14 99 -16 36 -4 42 -2 45
16 3 20 6 19 60 -17 31 -22 78 -44 105 -51 26 -7 63 -19 81 -27 18 -8 42 -14
54 -14 27 0 128 -32 128 -40 0 -3 -16 -12 -35 -19 -41 -15 -44 -32 -10 -59 13
-11 21 -22 18 -26 -3 -3 -1 -6 5 -6 18 0 52 -32 45 -43 -3 -6 -1 -7 4 -4 12 8
36 -17 26 -26 -3 -4 -1 -7 6 -7 14 0 150 -136 182 -183 13 -18 -13 3 -57 45
-125 122 -318 261 -394 283 -23 7 -23 7 -7 -9 22 -22 40 -56 34 -63 -7 -6 -46
16 -78 45 -15 13 -33 25 -40 26 -17 4 -48 15 -75 28 -11 5 -31 11 -45 12 -117
15 -224 39 -241 56 -16 15 -15 16 10 19 56 5 128 5 167 -2 34 -6 36 -5 15 4
-84 37 -331 88 -430 90 -35 1 -47 3 -32 7 32 9 290 -4 360 -19z m-903 11 c3
-5 1 -10 -4 -10 -6 0 -11 5 -11 10 0 6 2 10 4 10 3 0 8 -4 11 -10z m1310 -300
c3 -5 1 -10 -4 -10 -6 0 -11 5 -11 10 0 6 2 10 4 10 3 0 8 -4 11 -10z m465
-290 c0 -5 -2 -10 -4 -10 -3 0 -8 5 -11 10 -3 6 -1 10 4 10 6 0 11 -4 11 -10z"/>
</g>
</svg>
